#!OML:ASF H:\LiuWeirdWalks\Patient Classification 1\Patient 1\Session 1\male.ASF
:FULLY-SPECIFIED
:DEGREES
355
root 0.592229 17.4443 37.8277 -1.77096 -2.79139 4.30001
lowerback 4.33193 1.94227 -6.82695
upperback -2.32345 2.19092 0.728496
thorax -5.15222 1.33129 4.39742
lowerneck -22.8173 0.0368199 3.38566
upperneck 29.9557 0.3752 -4.80961
head 14.0659 -0.140466 -2.45492
rclavicle -4.44781e-015 -4.37326e-015
rhumerus -27.1446 -2.34157 -77.6191
rradius 42.5925
rwrist -21.6682
rhand -18.3353 -7.03011
rfingers 7.12502
rthumb 7.94669 -36.8607
lclavicle -4.44781e-015 -4.37326e-015
lhumerus -50.1785 19.1881 70.8943
lradius 8.14253
lwrist -22.7917
lhand -6.85379 -2.11943
lfingers 7.12502
lthumb 19.0114 26.9714
rfemur 1.10055 -5.27957 9.59346
rtibia 63.9847
rfoot 15.924 -7.45632
rtoes -6.03702
lfemur -22.3454 1.47098 -27.112
ltibia 34.0617
lfoot 0.942839 9.98862
ltoes -8.35577
356
root 0.599955 17.4685 38.123 -1.58652 -2.67425 4.35772
lowerback 4.15541 2.59537 -5.39409
upperback -2.25674 3.13131 -0.0619998
thorax -4.9674 1.72695 2.68562
lowerneck -23.4282 -0.855316 2.37553
upperneck 30.1318 -0.852496 -3.89295
head 14.2169 -0.655276 -2.148
rclavicle -2.22142e-014 6.95746e-015
rhumerus -28.2567 -5.58163 -77.1203
rradius 41.805
rwrist -21.7483
rhand -18.1346 -7.39997
rfingers 7.12502
rthumb 8.14046 -37.2232
lclavicle -2.22142e-014 6.95746e-015
lhumerus -48.1047 16.6382 72.2158
lradius 8.29574
lwrist -23.1278
lhand -6.65414 -2.33801
lfingers 7.12502
lthumb 19.2034 26.7339
rfemur -1.17223 -5.82814 9.50434
rtibia 66.4677
rfoot 13.1536 -7.79974
rtoes -5.8241
lfemur -21.58 1.31803 -27.2923
ltibia 34.3877
lfoot 0.0411716 10.4539
ltoes -8.34845
357
root 0.614202 17.4905 38.4034 -1.51067 -2.57521 4.31441
lowerback 4.25106 3.03021 -4.18156
upperback -2.23476 3.75792 -0.61948
thorax -4.93067 1.98656 1.37104
lowerneck -23.731 -1.46422 1.70203
upperneck 30.2113 -1.67808 -3.30301
head 14.2956 -1.00164 -1.95335
rclavicle -1.19892e-014 4.96962e-015
rhumerus -29.2745 -8.01197 -76.7533
rradius 40.8837
rwrist -21.8187
rhand -18.0254 -7.66909
rfingers 7.12502
rthumb 8.24579 -37.4882
lclavicle -1.19892e-014 4.96962e-015
lhumerus -46.4926 14.7446 73.1898
lradius 8.59281
lwrist -23.3254
lhand -6.56549 -2.56603
lfingers 7.12502
lthumb 19.2887 26.4974
rfemur -3.37093 -6.29174 9.57359
rtibia 68.5644
rfoot 10.335 -7.85155
rtoes -5.88889
lfemur -20.715 1.04648 -27.3515
ltibia 34.6621
lfoot -0.784453 11.0111
ltoes -8.44041
358
root 0.635594 17.5064 38.6577 -1.59933 -2.46404 4.24021
lowerback 4.67295 3.14019 -3.38529
upperback -2.25106 3.92477 -0.878518
thorax -5.12128 2.04032 0.621779
lowerneck -23.579 -1.66235 1.48615
upperneck 30.1204 -1.93938 -3.1276
head 14.219 -1.11356 -1.88852
rclavicle -1.91206e-014 1.77912e-014
rhumerus -30.0983 -9.32032 -76.6097
rradius 39.8007
rwrist -21.9129
rhand -18.036 -7.81127
rfingers 7.12502
rthumb 8.23558 -37.6308
lclavicle -1.91206e-014 1.77912e-014
lhumerus -45.4056 13.8209 73.7847
lradius 9.01997
lwrist -23.3892
lhand -6.61437 -2.83832
lfingers 7.12502
lthumb 19.2417 26.2298
rfemur -5.49743 -6.68136 9.72024
rtibia 70.3129
rfoot 7.54572 -7.81145
rtoes -6.2625
lfemur -19.7446 0.668156 -27.3774
ltibia 34.8881
lfoot -1.46959 11.639
ltoes -8.56601
359
root 0.657301 17.5197 38.9163 -1.79575 -2.35764 4.12198
lowerback 5.12893 3.07919 -2.84005
upperback -2.26607 3.85948 -0.951134
thorax -5.35032 1.98946 0.223898
lowerneck -23.3071 -1.64701 1.48413
upperneck 30.0427 -1.91005 -3.13715
head 14.1276 -1.10292 -1.87945
rclavicle -3.24764e-014 1.2921e-015
rhumerus -30.8558 -10.0638 -76.5497
rradius 38.5744
rwrist -21.8296
rhand -17.9911 -7.88179
rfingers 7.12502
rthumb 8.27889 -37.6996
lclavicle -3.24764e-014 1.2921e-015
lhumerus -44.5916 13.406 74.1939
lradius 9.52077
lwrist -23.3465
lhand -6.79885 -3.15908
lfingers 7.12502
lthumb 19.0643 25.9266
rfemur -7.41592 -7.02049 9.95246
rtibia 71.647
rfoot 4.74192 -7.843
rtoes -6.81137
lfemur -18.6155 0.275885 -27.3634
ltibia 35.0733
lfoot -2.16126 12.2905
ltoes -8.71309
360
root 0.678959 17.5296 39.1802 -2.15325 -2.22915 3.99619
lowerback 5.6632 3.00728 -2.30433
upperback -2.22614 3.78422 -0.993851
thorax -5.57087 1.93265 -0.138997
lowerneck -23.0329 -1.64275 1.43919
upperneck 30.0181 -1.89414 -3.10439
head 14.0598 -1.09636 -1.84994
rclavicle -4.93856e-015 4.07509e-015
rhumerus -31.6404 -10.7955 -76.4236
rradius 37.242
rwrist -21.5096
rhand -17.8815 -7.84808
rfingers 7.12502
rthumb 8.3847 -37.6617
lclavicle -4.93856e-015 4.07509e-015
lhumerus -43.7572 13.0019 74.6113
lradius 10.0398
lwrist -23.198
lhand -7.0913 -3.51172
lfingers 7.12502
lthumb 18.783 25.6014
rfemur -9.03899 -7.34864 10.2098
rtibia 72.5562
rfoot 2.01706 -8.03185
rtoes -7.44044
lfemur -17.2539 -0.115352 -27.3602
ltibia 35.2014
lfoot -2.85981 12.9554
ltoes -8.87986
361
root 0.696612 17.542 39.462 -2.44245 -2.0918 3.72198
lowerback 5.91591 2.92803 -1.68449
upperback -2.16874 3.72312 -0.972857
thorax -5.61337 1.88046 -0.466882
lowerneck -22.8094 -1.64749 1.38424
upperneck 30.0433 -1.88497 -3.07975
head 14.0243 -1.09471 -1.82557
rclavicle -2.53947e-014 1.68967e-015
rhumerus -32.4744 -11.5882 -76.2012
rradius 35.824
rwrist -20.9259
rhand -17.6666 -7.70493
rfingers 7.12502
rthumb 8.59211 -37.5101
lclavicle -2.53947e-014 1.68967e-015
lhumerus -42.6368 11.1671 76.3646
lradius 10.5982
lwrist -21.0787
lhand -7.67352 -3.59658
lfingers 7.12502
lthumb 18.223 25.5698
rfemur -10.5453 -7.67933 10.7046
rtibia 73.0068
rfoot -0.545905 -8.53507
rtoes -8.11501
lfemur -15.8604 -0.451577 -27.2036
ltibia 35.2638
lfoot -3.6007 13.5594
ltoes -9.04975
362
root 0.707583 17.5569 39.7644 -2.72971 -1.92348 3.32909
lowerback 5.94477 2.83661 -1.05891
upperback -2.07564 3.6573 -0.881104
thorax -5.49692 1.82785 -0.710283
lowerneck -22.6492 -1.65835 1.32485
upperneck 30.1078 -1.87154 -3.08982
head 14.0192 -1.09666 -1.8159
rclavicle 8.64465e-014 -7.7526e-015
rhumerus -33.3716 -12.4389 -75.8694
rradius 34.3575
rwrist -20.0411
rhand -17.3188 -7.54613
rfingers 7.12502
rthumb 8.92774 -37.3372
lclavicle 8.64465e-014 -7.7526e-015
lhumerus -41.6029 9.37515 77.9721
lradius 11.2247
lwrist -18.9782
lhand -8.28104 -3.66568
lfingers 7.12502
lthumb 17.6384 25.5543
rfemur -11.8333 -8.03541 11.3902
rtibia 73.0187
rfoot -2.92235 -9.37258
rtoes -8.7869
lfemur -14.3473 -0.746537 -26.9164
ltibia 35.2522
lfoot -4.39692 14.1069
ltoes -9.22164
363
root 0.714798 17.5717 40.0777 -2.99483 -1.74232 2.85944
lowerback 5.83531 2.75713 -0.397443
upperback -1.96598 3.61275 -0.758306
thorax -5.28583 1.78682 -0.936046
lowerneck -22.5571 -1.67786 1.29067
upperneck 30.1915 -1.86144 -3.15692
head 14.0358 -1.10537 -1.83586
rclavicle 2.24502e-014 -3.97569e-016
rhumerus -34.3243 -13.4024 -75.4105
rradius 32.8521
rwrist -18.9218
rhand -16.8816 -7.35723
rfingers 7.12502
rthumb 9.34958 -37.1299
lclavicle 2.24502e-014 -3.97569e-016
lhumerus -40.6139 7.5425 79.4876
lradius 11.9322
lwrist -16.8202
lhand -8.84676 -3.66114
lfingers 7.12502
lthumb 17.0939 25.6068
rfemur -13.0092 -8.42261 12.2072
rtibia 72.6699
rfoot -5.06802 -10.475
rtoes -9.43954
lfemur -12.7824 -0.989341 -26.5423
ltibia 35.1697
lfoot -5.21166 14.5807
ltoes -9.38296
364
root 0.719257 17.5846 40.3951 -3.23707 -1.54435 2.31764
lowerback 5.63062 2.66176 0.272764
upperback -1.83924 3.54679 -0.590916
thorax -5.00717 1.73791 -1.11352
lowerneck -22.4921 -1.6794 1.29598
upperneck 30.2538 -1.81999 -3.28469
head 14.0485 -1.10502 -1.8813
rclavicle 3.64024e-014 -1.2921e-015
rhumerus -35.2954 -14.385 -74.8678
rradius 31.3662
rwrist -17.7404
rhand -16.4253 -7.2213
rfingers 7.12502
rthumb 9.78984 -36.9737
lclavicle 3.64024e-014 -1.2921e-015
lhumerus -39.6729 5.80683 80.8578
lradius 12.7323
lwrist -14.65
lhand -9.31554 -3.56558
lfingers 7.12502
lthumb 16.6427 25.7409
rfemur -14.1298 -8.82925 13.1465
rtibia 72.0425
rfoot -6.98238 -11.7897
rtoes -9.92602
lfemur -11.2074 -1.20189 -26.0818
ltibia 35.0358
lfoot -6.02654 14.9834
ltoes -9.54913
365
root 0.725343 17.5911 40.7045 -3.54683 -1.36253 1.87009
lowerback 5.63233 2.586 0.880959
upperback -1.71588 3.4977 -0.455864
thorax -4.85237 1.69897 -1.30375
lowerneck -22.4947 -1.68794 1.30401
upperneck 30.3366 -1.78663 -3.42206
head 14.0844 -1.10921 -1.93449
rclavicle 1.17283e-014 9.93923e-016
rhumerus -36.299 -15.4553 -74.2126
rradius 29.8972
rwrist -16.4776
rhand -15.9451 -7.16852
rfingers 7.12502
rthumb 10.2531 -36.8986
lclavicle 1.17283e-014 9.93923e-016
lhumerus -38.7666 4.08607 82.1081
lradius 13.6297
lwrist -12.4702
lhand -9.74966 -3.45505
lfingers 7.12502
lthumb 16.2247 25.886
rfemur -15.189 -9.2126 13.9953
rtibia 71.2095
rfoot -8.6364 -13.212
rtoes -10.2259
lfemur -9.5752 -1.40414 -25.7282
ltibia 34.864
lfoot -6.79464 15.3752
ltoes -9.70508
366
root 0.735777 17.5881 40.9862 -3.92003 -1.16178 1.53452
lowerback 5.95017 2.50893 1.46318
upperback -1.60476 3.44634 -0.371946
thorax -4.88925 1.65707 -1.54954
lowerneck -22.3965 -1.71036 1.29718
upperneck 30.3446 -1.7751 -3.53813
head 14.0658 -1.12167 -1.97648
rclavicle 3.60049e-014 -3.18055e-015
rhumerus -37.3082 -16.5864 -73.4669
rradius 28.4739
rwrist -15.2335
rhand -15.481 -7.23684
rfingers 7.12502
rthumb 10.7008 -36.9443
lclavicle 3.60049e-014 -3.18055e-015
lhumerus -37.8574 2.40847 83.2334
lradius 14.6108
lwrist -10.2956
lhand -10.1453 -3.3299
lfingers 7.12502
lthumb 15.8437 26.0418
rfemur -16.3133 -9.58681 14.7355
rtibia 70.2406
rfoot -9.95663 -14.6586
rtoes -10.248
lfemur -7.97409 -1.66179 -25.5111
ltibia 34.6649
lfoot -7.44794 15.761
ltoes -9.85524
367
root 0.743176 17.5836 41.2666 -4.23432 -0.947618 1.14599
lowerback 6.22257 2.3705 1.95485
upperback -1.50128 3.31208 -0.213105
thorax -4.92242 1.57819 -1.65691
lowerneck -22.3484 -1.66103 1.3589
upperneck 30.3494 -1.6644 -3.71659
head 14.0585 -1.09259 -2.03833
rclavicle -1.14922e-014 5.96354e-015
rhumerus -38.2695 -17.5796 -72.6807
rradius 27.0796
rwrist -13.9576
rhand -15.0272 -7.37312
rfingers 7.12502
rthumb 11.1386 -37.0575
lclavicle -1.14922e-014 5.96354e-015
lhumerus -37.0068 1.02654 84.1587
lradius 15.6848
lwrist -8.21009
lhand -10.5025 -3.22623
lfingers 7.12502
lthumb 15.4997 26.1725
rfemur -17.4433 -9.92797 15.5795
rtibia 69.057
rfoot -11.0545 -16.1471
rtoes -10.0688
lfemur -6.43827 -1.94045 -25.2277
ltibia 34.4554
lfoot -8.10722 16.1209
ltoes -10.0006
368
root 0.754515 17.5696 41.5473 -4.69984 -0.77042 0.877482
lowerback 6.67437 2.27025 2.44287
upperback -1.39642 3.2325 -0.130091
thorax -5.05082 1.52366 -1.85438
lowerneck -22.2201 -1.64586 1.38723
upperneck 30.3215 -1.60696 -3.84745
head 14.019 -1.08328 -2.08233
rclavicle 1.78906e-015 7.35503e-015
rhumerus -39.3889 -18.882 -71.6288
rradius 25.6176
rwrist -12.2705
rhand -14.3763 -7.33881
rfingers 7.12502
rthumb 11.7662 -36.9883
lclavicle 1.78906e-015 7.35503e-015
lhumerus -36.2389 -0.458431 84.9805
lradius 16.7308
lwrist -6.21103
lhand -10.8097 -3.08235
lfingers 7.12502
lthumb 15.2039 26.339
rfemur -18.241 -10.1184 16.2688
rtibia 67.6385
rfoot -12.331 -17.6711
rtoes -10.0503
lfemur -4.69785 -2.26398 -25.1146
ltibia 34.1889
lfoot -8.71592 16.5432
ltoes -10.1607
369
root 0.754222 17.5617 41.8195 -4.80814 -0.555256 0.322818
lowerback 6.97176 2.3644 3.42977
upperback -1.45127 3.45592 -0.12096
thorax -5.21109 1.59989 -2.43583
lowerneck -22.1504 -1.9448 1.00203
upperneck 30.5808 -1.97885 -3.58938
head 14.1126 -1.24932 -1.98568
rclavicle -2.01269e-014 4.96962e-015
rhumerus -40.9715 -20.5262 -70.3589
rradius 24.503
rwrist -11.1969
rhand -14.0493 -7.84495
rfingers 7.12502
rthumb 12.0816 -37.4762
lclavicle -2.01269e-014 4.96962e-015
lhumerus -35.423 -2.51369 85.8782
lradius 17.9444
lwrist -3.99625
lhand -11.2659 -3.05254
lfingers 7.12502
lthumb 14.7643 26.4016
rfemur -19.4986 -10.4485 17.3687
rtibia 65.9024
rfoot -12.732 -19.0079
rtoes -9.08857
lfemur -3.34012 -2.52126 -24.6099
ltibia 33.8077
lfoot -9.31663 16.8083
ltoes -10.2946
